# AST/ASF file generated using VICON BodyLanguage
# -----------------------------------------------
:version 1.10
:name VICON
:units
  mass 1.0
  length 0.45
  angle deg
:documentation
   .ast/.asf automatically generated from VICON data using
   VICON BodyBuilder and BodyLanguage model FoxedUp or BRILLIANT.MOD
:root
   order TX TY TZ RX RY RZ
   axis XYZ
   position 0 0 0  
   orientation 0 0 0 
:bonedata
  begin
     id 1 
     name lhipjoint
     direction 0.690799 -0.707083 0.151096 
     length 2.54797 
     axis 0 0 0  XYZ
  end
  begin
     id 2 
     name lfemur
     direction 0.34202 -0.939693 0  
     length 7.21646  
     axis 0 0 20  XYZ
    dof rx ry rz
    limits (-160.0 20.0)
           (-70.0 70.0)
           (-60.0 70.0)
  end
  begin
     id 3 
     name ltibia
     direction 0.34202 -0.939693 0   
     length 8.16759   
     axis 0 0 20   XYZ
    dof rx
    limits (-10.0 170.0)
  end
  begin
     id 4 
     name lfoot
     direction 0.0487203 -0.133858 0.989802   
     length 1.93375   
     axis -90 7.62852e-016 20   XYZ
    dof rx rz
    limits (-45.0 90.0)
           (-70.0 20.0)
  end
  begin
     id 5 
     name ltoes
     direction 1.53453e-011 -4.21783e-011 1   
     length 0.979747   
     axis -90 7.62852e-016 20   XYZ
    dof rx
    limits (-90.0 20.0)
  end
  begin
     id 6 
     name rhipjoint
     direction -0.694693 -0.703425 0.150315   
     length 2.56122  
     axis 0 0 0  XYZ 
  end
  begin
     id 7 
     name rfemur
     direction -0.34202 -0.939693 0   
     length 7.36786   
     axis 0 0 -20   XYZ
    dof rx ry rz
    limits (-160.0 20.0)
           (-70.0 70.0)
           (-70.0 60.0)
  end
  begin
     id 8 
     name rtibia
     direction -0.34202 -0.939693 0   
     length 8.07288   
     axis 0 0 -20   XYZ
    dof rx
    limits (-10.0 170.0)
 end
 begin
     id 9 
     name rfoot
     direction -0.0428397 -0.117701 0.992125   
     length 1.88295  
     axis -90 -7.62852e-016 -20   XYZ
    dof rx rz
    limits (-45.0 90.0)
           (-20.0 70.0)
  end
  begin
     id 10 
     name rtoes
     direction -1.53456e-011 -4.2187e-011 1   
     length 0.955578   
     axis -90 -7.62852e-016 -20   XYZ
    dof rx
    limits (-90.0 20.0)
  end
  begin
     id 11 
     name lowerback
     direction 0.0288145 0.999398 -0.0193241   
     length 1.92149   
     axis 0 0 0   XYZ
    dof rx ry rz
    limits (-20.0 45.0)
           (-30.0 30.0)
           (-30.0 30.0)
  end
  begin
     id 12 
     name upperback
     direction 0.0233784 0.998099 0.0570278   
     length 1.90435   
     axis 0 0 0   XYZ
    dof rx ry rz
    limits (-20.0 45.0)
           (-30.0 30.0)
           (-30.0 30.0)
  end
  begin
     id 13 
     name thorax
     direction 0.0096694 0.997833 0.0650817   
     length 1.9111   
     axis 0 0 0   XYZ
    dof rx ry rz
    limits (-20.0 45.0)
           (-30.0 30.0)
           (-30.0 30.0)
  end
  begin
     id 14 
     name lowerneck
     direction 0.00516803 0.999916 0.0118722   
     length 1.74664   
     axis 0 0 0   XYZ
    dof rx ry rz
    limits (-20.0 45.0)
           (-30.0 30.0)
           (-30.0 30.0)
  end
  begin
     id 15 
     name upperneck
     direction -0.0510851 0.996117 -0.071696   
     length 1.68498   
     axis 0 0 0   XYZ
    dof rx ry rz
    limits (-20.0 45.0)
           (-30.0 30.0)
           (-30.0 30.0)
  end
  begin
     id 16
     name head
     direction -0.019188 0.999436 -0.0275702  
     length 1.83483  
     axis 0 0 0   XYZ
    dof rx ry rz
    limits (-20.0 45.0)
           (-30.0 30.0)
           (-30.0 30.0)
  end
  begin
     id 17 
     name lclavicle
     direction 0.967006 0.248456 -0.0562957  
     length 3.39395  
     axis 0 0 0   XYZ
    dof ry rz
    limits (-20.0 10.0)
           (0.0 20.0)
  end
  begin
     id 18 
     name lhumerus
     direction 1 -4.48962e-011 -5.62711e-019   
     length 5.24318   
     axis 180 -30 -90   XYZ
    dof rx ry rz
    limits (-60.0 90.0)
           (-90.0 90.0)
           (-90.0 90.0)
  end
  begin
     id 19
     name lradius
     direction 1 -4.48966e-011 7.90625e-027   
     length 2.98999   
     axis 180 -30 -90   XYZ
    dof rx
    limits (-10.0 170.0)
  end
  begin
     id 20
     name lwrist
     direction 1 -4.48959e-011 1.61068e-026   
     length 1.49499   
     axis -9.31229e-015 90 90   XYZ
    dof ry
    limits (-180.0 0.0)
 end
  begin
     id 21 
     name lhand
     direction 1 -4.49017e-011 3.22136e-026   
     length 0.726745   
     axis -2.0555e-014 90 90   XYZ
    dof rx rz
    limits (-90.0 90.0)
           (-45.0 45.0)
  end
  begin
     id 22 
     name lfingers
     direction 1 -4.4898e-011 6.44272e-026   
     length 0.58592   
     axis -4.11101e-014 90 90   XYZ
    dof rx
    limits (0.0 90.0)
  end
  begin
     id 23
     name lthumb
     direction 0.707107 -6.34922e-011 0.707107   
     length 0.841268   
     axis -90 45 2.85299e-015   XYZ
    dof rx rz
    limits (-45.0 45.0)
           (-45.0 45.0)
  end
  begin
     id 24 
     name rclavicle
     direction -0.972232 0.230238 0.0419005   
     length 3.40416  
     axis 0 0 0   XYZ 
    dof ry rz
    limits (-10.0 20.0)
           (-20.0 0.0)
  end
  begin
     id 25 
     name rhumerus
     direction -1 -4.48976e-011 2.48487e-027  
     length 5.37045   
     axis 180 30 90   XYZ
    dof rx ry rz
    limits (-90.0 60.0)
           (-90.0 90.0)
           (-90.0 90.0)
  end
  begin
     id 26 
     name rradius
     direction -1 -4.48942e-011 7.87951e-027   
     length 2.92792   
     axis 180 30 90   XYZ
    dof rx
    limits (-10.0 170.0)
  end
  begin
     id 27 
     name rwrist
     direction -1 -4.48969e-011 1.61068e-026   
     length 1.46396   
     axis -9.31229e-015 -90 -90   XYZ
    dof ry
    limits (-180.0 0.0)
  end
  begin
     id 28
     name rhand
     direction -1 -4.49043e-011 3.22136e-026   
     length 0.784497   
     axis -2.0555e-014 -90 -90   XYZ
    dof rx rz
    limits (-90.0 90.0)
           (-45.0 45.0)
  end
  begin
     id 29
     name rfingers
     direction -1 -4.48823e-011 6.44272e-026   
     length 0.632482   
     axis -4.11101e-014 -90 -90   XYZ
    dof rx
    limits (0.0 90.0)
  end
  begin
     id 30
     name rthumb
     direction -0.707107 -6.34923e-011 0.707107   
     length 0.908121   
     axis -90 -45 -2.85299e-015   XYZ
    dof rx rz
    limits (-45.0 45.0)
           (-45.0 45.0)
  end
:hierarchy
  begin
    root lhipjoint rhipjoint lowerback
    lhipjoint lfemur
    lfemur ltibia
    ltibia lfoot
    lfoot ltoes
    rhipjoint rfemur
    rfemur rtibia
    rtibia rfoot
    rfoot rtoes
    lowerback upperback
    upperback thorax
    thorax lowerneck lclavicle rclavicle
    lowerneck upperneck
    upperneck head
    lclavicle lhumerus
    lhumerus lradius
    lradius lwrist
    lwrist lhand lthumb
    lhand lfingers
    rclavicle rhumerus
    rhumerus rradius
    rradius rwrist
    rwrist rhand rthumb
    rhand rfingers
  end

#!OML:ASF E:\Style6\Style6.ASF
:FULLY-SPECIFIED
:DEGREES
1702
root -0.465082 15.8091 -0.530362 -4.45966 4.92844 1.39446
lowerback 23.5013 -1.66812 3.3144
upperback 9.23701 -1.16966 4.33789
thorax -2.90852 -0.573245 3.08562
lowerneck -13.7942 0.425408 2.10816
upperneck 4.56574 1.27814 -13.0544
head 3.74409 -0.0197651 -4.28916
rclavicle -1.11319e-014 1.74931e-014
rhumerus -16.8177 4.48277 -32.6969
rradius 54.401
rwrist -18.2637
rhand 3.65008 10.5489
rfingers 7.12502
rthumb 29.0816 -17.2008
lclavicle -1.11319e-014 1.74931e-014
lhumerus -15.1228 -47.8739 46.1854
lradius 61.0924
lwrist 55.0872
lhand 8.8642 20.3776
lfingers 7.12502
lthumb 34.0483 47.1506
rfemur -31.1919 -24.0967 18.0937
rtibia 67.7349
rfoot -24.1955 4.60344
rtoes -11.3046
lfemur -30.5715 17.1761 -14.7589
ltibia 65.552
lfoot -24.9614 -8.16976
ltoes -25.0541
1703
root -0.471651 15.8035 -0.532117 -4.42054 4.9031 1.20657
lowerback 23.5796 -1.60419 3.3494
upperback 9.2492 -1.07568 4.33307
thorax -2.93731 -0.52628 3.0388
lowerneck -13.8067 0.372517 2.02672
upperneck 4.5456 1.20166 -12.8455
head 3.73032 -0.0477906 -4.21529
rclavicle -1.19271e-014 -6.36111e-015
rhumerus -16.7482 4.61082 -32.8307
rradius 54.1007
rwrist -18.2755
rhand 3.53486 10.493
rfingers 7.12502
rthumb 28.9715 -17.2757
lclavicle -1.19271e-014 -6.36111e-015
lhumerus -15.5122 -47.9567 46.4016
lradius 60.8656
lwrist 55.016
lhand 8.94246 20.6052
lfingers 7.12502
lthumb 34.1226 47.3617
rfemur -31.291 -24.1051 18.3744
rtibia 67.7634
rfoot -24.2244 4.63455
rtoes -11.24
lfemur -30.7056 17.2187 -14.5223
ltibia 65.6631
lfoot -24.9273 -8.42943
ltoes -24.3545
1704
root -0.477531 15.7969 -0.53444 -4.40652 4.87717 1.01487
lowerback 23.6416 -1.54967 3.40816
upperback 9.32127 -0.994141 4.30384
thorax -2.89266 -0.484206 2.95337
lowerneck -13.9216 0.333727 2.07602
upperneck 4.50777 1.12615 -12.7029
head 3.72966 -0.07903 -4.18475
rclavicle -7.95139e-016 -5.88403e-014
rhumerus -16.632 4.59411 -33.0048
rradius 53.8188
rwrist -18.0171
rhand 3.59796 10.4812
rfingers 7.12502
rthumb 29.0318 -17.2771
lclavicle -7.95139e-016 -5.88403e-014
lhumerus -15.838 -48.0115 46.5315
lradius 60.6102
lwrist 54.8916
lhand 8.59858 19.6849
lfingers 7.12502
lthumb 33.796 46.5137
rfemur -31.3749 -24.0927 18.6515
rtibia 67.7966
rfoot -24.2104 4.63046
rtoes -11.0477
lfemur -30.8318 17.25 -14.2856
ltibia 65.7905
lfoot -24.9141 -8.61813
ltoes -23.8112
1705
root -0.481817 15.7907 -0.53579 -4.36256 4.86871 0.962556
lowerback 23.6638 -1.48937 3.37165
upperback 9.37841 -0.930589 4.21551
thorax -2.84445 -0.451682 2.86159
lowerneck -14.0555 0.275905 2.12388
upperneck 4.53947 1.02843 -12.5116
head 3.75074 -0.12188 -4.14125
rclavicle 3.18055e-015 3.18055e-014
rhumerus -16.5311 4.55309 -33.1979
rradius 53.5952
rwrist -17.6915
rhand 3.82528 10.3761
rfingers 7.12502
rthumb 29.2489 -17.3445
lclavicle 3.18055e-015 3.18055e-014
lhumerus -16.1135 -48.0126 46.6046
lradius 60.3727
lwrist 54.8176
lhand 8.16971 18.6989
lfingers 7.12502
lthumb 33.3884 45.6164
rfemur -31.4924 -24.1369 18.7616
rtibia 67.8518
rfoot -24.2214 4.54116
rtoes -11.8052
lfemur -30.9594 17.2378 -14.2276
ltibia 65.8968
lfoot -24.943 -8.57402
ltoes -23.9269
1706
root -0.486358 15.7848 -0.53666 -4.26953 4.82749 0.911214
lowerback 23.7222 -1.44601 3.31469
upperback 9.34224 -0.885557 4.14613
thorax -2.91511 -0.429839 2.80934
lowerneck -14.046 0.231337 1.99299
upperneck 4.58201 0.973084 -12.2383
head 3.75353 -0.138555 -4.03801
rclavicle 2.38542e-015 1.74931e-014
rhumerus -16.3622 4.71675 -33.3759
rradius 53.3086
rwrist -17.496
rhand 4.09161 10.3707
rfingers 7.12502
rthumb 29.5032 -17.3054
lclavicle 2.38542e-015 1.74931e-014
lhumerus -16.6312 -47.9868 46.8352
lradius 60.2394
lwrist 54.7368
lhand 8.22775 18.5362
lfingers 7.12502
lthumb 33.4435 45.4418
rfemur -31.6738 -24.1614 18.9006
rtibia 67.9087
rfoot -24.1618 4.52408
rtoes -11.9344
lfemur -31.1425 17.246 -14.1795
ltibia 66.0147
lfoot -24.9591 -8.55146
ltoes -23.9283
1707
root -0.490762 15.7791 -0.538205 -4.22241 4.7818 0.911626
lowerback 23.9054 -1.38242 3.17343
upperback 9.2803 -0.823524 4.08547
thorax -3.07474 -0.401769 2.81401
lowerneck -14.027 0.206499 1.84198
upperneck 4.61308 0.945243 -11.9476
head 3.75334 -0.140359 -3.92388
rclavicle 2.06736e-014 -3.18055e-015
rhumerus -16.2632 4.97599 -33.5075
rradius 53.1038
rwrist -17.4537
rhand 4.25288 10.2905
rfingers 7.12502
rthumb 29.6571 -17.3583
lclavicle 2.06736e-014 -3.18055e-015
lhumerus -17.1854 -47.8728 47.0922
lradius 60.136
lwrist 54.4098
lhand 8.76764 18.9752
lfingers 7.12502
lthumb 33.9566 45.7686
rfemur -31.8017 -24.1871 18.9504
rtibia 67.9672
rfoot -24.1126 4.62518
rtoes -11.5185
lfemur -31.2478 17.2566 -14.1769
ltibia 66.1267
lfoot -24.9961 -8.41161
ltoes -24.124
1708
root -0.495935 15.7726 -0.54164 -4.16942 4.74338 0.730701
lowerback 24.0276 -1.303 3.24447
upperback 9.25916 -0.699683 4.04256
thorax -3.16265 -0.339055 2.69816
lowerneck -14.1042 0.149141 1.84134
upperneck 4.68049 0.852595 -11.6736
head 3.7759 -0.176191 -3.84602
rclavicle -1.74931e-014 5.24792e-014
rhumerus -16.2744 5.04134 -33.6815
rradius 52.9219
rwrist -17.3168
rhand 4.31366 10.0978
rfingers 7.12502
rthumb 29.7151 -17.5406
lclavicle -1.74931e-014 5.24792e-014
lhumerus -17.4778 -47.5421 47.2169
lradius 60.0246
lwrist 53.7297
lhand 9.27399 19.5318
lfingers 7.12502
lthumb 34.4374 46.2174
rfemur -31.9413 -24.1936 19.2241
rtibia 67.9898
rfoot -24.0767 4.79705
rtoes -10.6672
lfemur -31.431 17.2845 -13.9753
ltibia 66.2717
lfoot -25.0555 -8.33581
ltoes -24.3764
1709
root -0.50084 15.7652 -0.542805 -4.12148 4.67447 0.461128
lowerback 24.1153 -1.25095 3.35754
upperback 9.24307 -0.601915 4.04482
thorax -3.22639 -0.289484 2.61297
lowerneck -14.1673 0.103528 1.79808
upperneck 4.76035 0.78689 -11.4324
head 3.80254 -0.201166 -3.76951
rclavicle 4.77083e-015 -3.81667e-014
rhumerus -16.1606 5.1881 -33.8503
rradius 52.6728
rwrist -17.1901
rhand 4.45226 10.0108
rfingers 7.12502
rthumb 29.8474 -17.604
lclavicle 4.77083e-015 -3.81667e-014
lhumerus -17.8878 -47.1188 47.4551
lradius 59.8914
lwrist 53.0071
lhand 9.67736 19.9249
lfingers 7.12502
lthumb 34.8203 46.5227
rfemur -32.0511 -24.1898 19.6024
rtibia 67.9981
rfoot -24.0502 4.92771
rtoes -9.97302
lfemur -31.611 17.3675 -13.6567
ltibia 66.4252
lfoot -25.0896 -8.42631
ltoes -24.029
1710
root -0.504329 15.7605 -0.5414 -4.05631 4.62166 0.286233
lowerback 24.1673 -1.20441 3.43081
upperback 9.23203 -0.523879 4.0189
thorax -3.26649 -0.249732 2.52384
lowerneck -14.2677 0.0726794 1.692
upperneck 4.83844 0.752405 -11.1869
head 3.83696 -0.212607 -3.67939
rclavicle 1.35174e-014 1.59028e-015
rhumerus -16.0623 5.31805 -34.0216
rradius 52.4553
rwrist -17.0597
rhand 4.62435 9.97142
rfingers 7.12502
rthumb 30.0116 -17.6137
lclavicle 1.35174e-014 1.59028e-015
lhumerus -18.2611 -46.7497 47.6921
lradius 59.6354
lwrist 52.3075
lhand 10.0186 19.9586
lfingers 7.12502
lthumb 35.144 46.4809
rfemur -32.1414 -24.2569 19.8505
rtibia 68.0025
rfoot -24.0376 5.06479
rtoes -9.83453
lfemur -31.7599 17.4251 -13.4569
ltibia 66.5524
lfoot -25.1184 -8.48398
ltoes -23.8001
1711
root -0.507393 15.7579 -0.541411 -4.02488 4.58005 0.202831
lowerback 24.2945 -1.14571 3.39528
upperback 9.2124 -0.450676 3.96558
thorax -3.35253 -0.214112 2.46986
lowerneck -14.2653 0.041122 1.63789
upperneck 4.81382 0.695523 -10.9324
head 3.82206 -0.226995 -3.59471
rclavicle 2.38542e-015 6.36111e-015
rhumerus -15.9662 5.54406 -34.1995
rradius 52.2438
rwrist -16.9561
rhand 4.64457 9.98614
rfingers 7.12502
rthumb 30.0309 -17.5955
lclavicle 2.38542e-015 6.36111e-015
lhumerus -18.5722 -46.5825 47.9031
lradius 59.3292
lwrist 51.615
lhand 10.0034 19.6695
lfingers 7.12502
lthumb 35.1296 46.1952
rfemur -32.2097 -24.3279 19.983
rtibia 68.0154
rfoot -24.0614 4.99348
rtoes -10.5989
lfemur -31.8479 17.426 -13.3601
ltibia 66.6475
lfoot -25.1441 -8.48806
ltoes -23.6121
1712
root -0.5102 15.7553 -0.54203 -4.00893 4.54046 0.118197
lowerback 24.4461 -1.0971 3.37706
upperback 9.17234 -0.38554 3.89
thorax -3.47301 -0.182033 2.38441
lowerneck -14.1706 0.0106955 1.65323
upperneck 4.71527 0.622311 -10.708
head 3.76927 -0.244745 -3.53052
rclavicle -1.27222e-014 5.08889e-014
rhumerus -15.978 5.83493 -34.4053
rradius 52.1695
rwrist -16.8558
rhand 4.64719 9.95376
rfingers 7.12502
rthumb 30.0334 -17.6275
lclavicle -1.27222e-014 5.08889e-014
lhumerus -18.8407 -46.4085 48.0894
lradius 58.9944
lwrist 50.9449
lhand 10.0678 19.5819
lfingers 7.12502
lthumb 35.1907 46.0932
rfemur -32.2622 -24.3833 20.1056
rtibia 68.0339
rfoot -24.0402 4.97779
rtoes -10.8488
lfemur -31.9183 17.4016 -13.2699
ltibia 66.7347
lfoot -25.1456 -8.40843
ltoes -23.6225
